<svg width="33" height="32" viewBox="0 0 33 32" fill="none" xmlns="http://www.w3.org/2000/svg">
<circle cx="16.8851" cy="16" r="15.3333" stroke="black" stroke-width="1.33333"/>
<g clip-path="url(#clip0_2_568)">
<path d="M22.1128 12.741C22.1217 12.8831 22.1217 13.0253 22.1217 13.1674C22.1217 17.5024 19.2346 22.4973 13.958 22.4973C12.3323 22.4973 10.8222 21.9593 9.55188 21.0253C9.78285 21.0557 10.0049 21.0659 10.2448 21.0659C11.5861 21.0659 12.8209 20.5481 13.807 19.6649C12.5455 19.6344 11.4884 18.6903 11.1242 17.3908C11.3019 17.4212 11.4795 17.4415 11.6661 17.4415C11.9237 17.4415 12.1813 17.4009 12.4212 17.3298C11.1065 17.0253 10.1204 15.7055 10.1204 14.1116V14.071C10.5023 14.3146 10.9465 14.4669 11.4173 14.4872C10.6445 13.8983 10.1382 12.8933 10.1382 11.7562C10.1382 11.1471 10.2803 10.5887 10.529 10.1014C11.9415 12.0913 14.0646 13.3907 16.4452 13.5329C16.4008 13.2892 16.3742 13.0354 16.3742 12.7816C16.3742 10.9745 17.6534 9.50244 19.2435 9.50244C20.0696 9.50244 20.8158 9.89838 21.3399 10.538C21.9884 10.3958 22.6102 10.1217 23.161 9.7461C22.9477 10.5075 22.4947 11.1471 21.8996 11.5532C22.477 11.4822 23.0366 11.2994 23.5518 11.0456C23.161 11.6953 22.6724 12.274 22.1128 12.741Z" fill="black"/>
</g>
<defs>
<clipPath id="clip0_2_568">
<rect width="14" height="16" fill="white" transform="translate(9.55188 8)"/>
</clipPath>
</defs>
</svg>
