<svg width="24" height="17" viewBox="0 0 24 17" fill="none" xmlns="http://www.w3.org/2000/svg">
<path d="M0 8.5C0 3.80558 3.80558 0 8.5 0H15.5C20.1944 0 24 3.80558 24 8.5C24 13.1944 20.1944 17 15.5 17H8.5C3.80558 17 0 13.1944 0 8.5Z" fill="#FFBA60"/>
<path d="M11.4569 6.5C11.3969 6.53333 11.2969 6.57667 11.1569 6.63C11.0169 6.67667 10.9102 6.71333 10.8369 6.74C10.5435 6.83333 10.3602 6.9 10.2869 6.94V5.79C10.5135 5.69667 10.7869 5.56333 11.1069 5.39C11.4335 5.21 11.6635 5.04667 11.7969 4.9H13.0069V13H11.4569V6.5Z" fill="white"/>
</svg>
